<svg width="1920" height="1080" viewBox="0 0 1920 1080" fill="none" xmlns="http://www.w3.org/2000/svg">
<g clip-path="url(#clip0_124_24)">
<rect width="1920" height="1080" fill="url(#paint0_linear_124_24)"/>
<path d="M187.046 195.367C220.244 220.517 257.969 243.152 262.999 271.823C267.526 300.494 239.358 334.195 214.208 361.86C188.555 389.525 165.92 410.651 136.243 427.25C107.069 443.849 70.853 456.424 32.625 451.897C-5.10001 447.873 -45.34 426.747 -62.945 394.052C-80.55 361.357 -76.526 316.59 -63.951 278.362C-51.376 240.134 -30.25 207.942 -2.58501 182.289C25.583 156.133 60.29 136.516 92.482 140.037C124.674 143.558 153.848 170.72 187.046 195.367Z" fill="url(#paint1_linear_124_24)"/>
<path d="M125.363 -285.748C156.51 -286.336 200 -193.48 257.593 -148.816C315.187 -105.327 388.061 -110.028 436.84 -78.8805C485.618 -47.7328 511.477 19.2642 507.951 86.2611C504.424 153.258 470.926 220.843 416.27 243.763C361.615 266.683 284.627 244.938 214.104 255.517C143.581 264.92 78.935 307.233 45.4365 289.015C12.5257 271.384 11.3504 192.633 -11.5697 130.926C-35.0774 69.8057 -79.1543 25.7288 -71.5143 -8.94506C-63.8743 -43.6189 -3.92965 -68.302 35.4457 -128.834C74.8211 -189.367 93.6273 -284.573 125.363 -285.748Z" fill="url(#paint2_linear_124_24)"/>
<g clip-path="url(#clip1_124_24)">
<path d="M1825.83 158.793C1895.24 126.674 1995.86 168.363 2104.63 201.628C2212.69 236.124 2328.9 262.197 2359.78 330.893C2392.61 399.069 2341.36 510.579 2333.56 640.611C2325.04 771.874 2359.97 921.66 2307.02 1019.06C2252.84 1115.76 2110.24 1158.12 1993.71 1126.94C1876.46 1096.98 1785.28 993.476 1689.45 903.694C1592.91 815.142 1491.73 740.317 1490.85 659.418C1488.75 577.808 1587.67 488.893 1654.54 392.962C1722.12 295.801 1757.65 191.623 1825.83 158.793Z" fill="url(#paint3_linear_124_24)"/>
</g>
<path d="M1843.94 695.48C1895.16 737.835 1906.98 830.425 1918.8 912.18C1931.61 993.935 1945.4 1064.86 1937.52 1140.7C1928.65 1216.55 1899.1 1297.32 1840.99 1347.55C1782.87 1397.79 1696.19 1418.47 1626.26 1396.8C1555.34 1375.13 1501.16 1311.11 1426.3 1266.78C1351.44 1221.47 1256.88 1194.88 1224.38 1137.75C1191.87 1080.62 1221.42 992.95 1264.76 925.97C1308.1 858.99 1365.23 811.71 1425.32 772.31C1485.4 732.91 1548.44 700.405 1625.27 680.705C1702.1 660.02 1792.72 653.125 1843.94 695.48Z" fill="url(#paint4_linear_124_24)"/>
</g>
<defs>
<linearGradient id="paint0_linear_124_24" x1="-482.5" y1="-252" x2="2364.5" y2="1327" gradientUnits="userSpaceOnUse">
<stop stop-color="#0049B7"/>
<stop offset="1" stop-color="#FF1D58"/>
</linearGradient>
<linearGradient id="paint1_linear_124_24" x1="-74.7936" y1="452.829" x2="237.481" y2="115.554" gradientUnits="userSpaceOnUse">
<stop stop-color="#FF1D58"/>
<stop offset="1" stop-color="#0049B7"/>
</linearGradient>
<linearGradient id="paint2_linear_124_24" x1="213.267" y1="458.812" x2="250.232" y2="-340.222" gradientUnits="userSpaceOnUse">
<stop stop-color="#FF1D58"/>
<stop offset="1" stop-color="#0049B7"/>
</linearGradient>
<linearGradient id="paint3_linear_124_24" x1="2176.22" y1="1245.64" x2="1845.37" y2="8.91999" gradientUnits="userSpaceOnUse">
<stop stop-color="#FF1D58"/>
<stop offset="1" stop-color="#0049B7"/>
</linearGradient>
<linearGradient id="paint4_linear_124_24" x1="1210.57" y1="1405.34" x2="1951.46" y2="676.181" gradientUnits="userSpaceOnUse">
<stop stop-color="#FF1D58"/>
<stop offset="1" stop-color="#0049B7"/>
</linearGradient>
<clipPath id="clip0_124_24">
<rect width="1920" height="1080" fill="white"/>
</clipPath>
<clipPath id="clip1_124_24">
<rect width="1420.9" height="1420.9" fill="white" transform="translate(997.17 823.946) rotate(-60)"/>
</clipPath>
</defs>
</svg>
