<svg width="30" height="30" viewBox="0 0 30 30" fill="none" xmlns="http://www.w3.org/2000/svg">
<g clip-path="url(#clip0_205_56)">
<g filter="url(#filter0_d_205_56)">
<path d="M10.05 10.05C10.2375 9.86252 10.4918 9.7572 10.757 9.7572C11.0222 9.7572 11.2765 9.86252 11.464 10.05L15 13.586L18.536 10.05C18.7246 9.86783 18.9772 9.76704 19.2394 9.76931C19.5016 9.77159 19.7524 9.87676 19.9378 10.0622C20.1232 10.2476 20.2284 10.4984 20.2307 10.7606C20.2329 11.0228 20.1321 11.2754 19.95 11.464L16.414 15L19.95 18.536C20.1321 18.7246 20.2329 18.9772 20.2307 19.2394C20.2284 19.5016 20.1232 19.7524 19.9378 19.9378C19.7524 20.1232 19.5016 20.2284 19.2394 20.2307C18.9772 20.2329 18.7246 20.1321 18.536 19.95L15 16.414L11.464 19.95C11.2754 20.1321 11.0228 20.2329 10.7606 20.2307C10.4984 20.2284 10.2476 20.1232 10.0622 19.9378C9.87676 19.7524 9.77159 19.5016 9.76931 19.2394C9.76704 18.9772 9.86783 18.7246 10.05 18.536L13.586 15L10.05 11.464C9.86252 11.2765 9.7572 11.0222 9.7572 10.757C9.7572 10.4918 9.86252 10.2375 10.05 10.05Z" fill="white"/>
</g>
</g>
<rect x="0.5" y="0.5" width="29" height="29" rx="14.5" stroke="white"/>
<defs>
<filter id="filter0_d_205_56" x="7.7572" y="7.7572" width="14.4735" height="14.4735" filterUnits="userSpaceOnUse" color-interpolation-filters="sRGB">
<feFlood flood-opacity="0" result="BackgroundImageFix"/>
<feColorMatrix in="SourceAlpha" type="matrix" values="0 0 0 0 0 0 0 0 0 0 0 0 0 0 0 0 0 0 127 0" result="hardAlpha"/>
<feOffset/>
<feGaussianBlur stdDeviation="1"/>
<feComposite in2="hardAlpha" operator="out"/>
<feColorMatrix type="matrix" values="0 0 0 0 0 0 0 0 0 0 0 0 0 0 0 0 0 0 0.1 0"/>
<feBlend mode="normal" in2="BackgroundImageFix" result="effect1_dropShadow_205_56"/>
<feBlend mode="normal" in="SourceGraphic" in2="effect1_dropShadow_205_56" result="shape"/>
</filter>
<clipPath id="clip0_205_56">
<rect width="16" height="16" fill="white" transform="translate(7 7)"/>
</clipPath>
</defs>
</svg>
