<svg width="30" height="30" viewBox="0 0 30 30" fill="none" xmlns="http://www.w3.org/2000/svg">
<g clip-path="url(#clip0_205_45)">
<g filter="url(#filter0_d_205_45)">
<path d="M20.5 9.5V12.5V9.5ZM20.5 9.5H17.5H20.5ZM20.5 9.5L16.5 13.5L20.5 9.5ZM18.5 21.5C12.9773 21.5 8.5 17.0227 8.5 11.5V10C8.5 9.60218 8.65804 9.22064 8.93934 8.93934C9.22064 8.65804 9.60218 8.5 10 8.5H10.9147C11.2587 8.5 11.5587 8.734 11.642 9.068L12.3793 12.0167C12.4527 12.31 12.3433 12.618 12.1013 12.7987L11.2393 13.4453C11.116 13.5347 11.0247 13.6614 10.979 13.8067C10.9334 13.952 10.9358 14.1082 10.986 14.252C11.3872 15.3434 12.0209 16.3346 12.8432 17.1568C13.6654 17.9791 14.6566 18.6128 15.748 19.014C16.042 19.122 16.3667 19.0113 16.5547 18.7607L17.2013 17.8987C17.2898 17.7805 17.4113 17.6911 17.5504 17.6416C17.6895 17.5922 17.8401 17.5849 17.9833 17.6207L20.932 18.358C21.2653 18.4413 21.5 18.7413 21.5 19.0853V20C21.5 20.3978 21.342 20.7794 21.0607 21.0607C20.7794 21.342 20.3978 21.5 20 21.5H18.5Z" fill="white"/>
<path d="M20.5 9.5V12.5M20.5 9.5H17.5M20.5 9.5L16.5 13.5M18.5 21.5C12.9773 21.5 8.5 17.0227 8.5 11.5V10C8.5 9.60218 8.65804 9.22064 8.93934 8.93934C9.22064 8.65804 9.60218 8.5 10 8.5H10.9147C11.2587 8.5 11.5587 8.734 11.642 9.068L12.3793 12.0167C12.4527 12.31 12.3433 12.618 12.1013 12.7987L11.2393 13.4453C11.116 13.5347 11.0247 13.6614 10.979 13.8067C10.9334 13.952 10.9358 14.1082 10.986 14.252C11.3872 15.3434 12.0209 16.3346 12.8432 17.1568C13.6654 17.9791 14.6566 18.6128 15.748 19.014C16.042 19.122 16.3667 19.0113 16.5547 18.7607L17.2013 17.8987C17.2898 17.7805 17.4113 17.6911 17.5504 17.6416C17.6895 17.5922 17.8401 17.5849 17.9833 17.6207L20.932 18.358C21.2653 18.4413 21.5 18.7413 21.5 19.0853V20C21.5 20.3978 21.342 20.7794 21.0607 21.0607C20.7794 21.342 20.3978 21.5 20 21.5H18.5Z" stroke="white" stroke-linecap="round" stroke-linejoin="round"/>
</g>
</g>
<rect x="0.5" y="0.5" width="29" height="29" rx="14.5" stroke="white"/>
<defs>
<filter id="filter0_d_205_45" x="6" y="6" width="18" height="18" filterUnits="userSpaceOnUse" color-interpolation-filters="sRGB">
<feFlood flood-opacity="0" result="BackgroundImageFix"/>
<feColorMatrix in="SourceAlpha" type="matrix" values="0 0 0 0 0 0 0 0 0 0 0 0 0 0 0 0 0 0 127 0" result="hardAlpha"/>
<feOffset/>
<feGaussianBlur stdDeviation="1"/>
<feComposite in2="hardAlpha" operator="out"/>
<feColorMatrix type="matrix" values="0 0 0 0 0 0 0 0 0 0 0 0 0 0 0 0 0 0 0.1 0"/>
<feBlend mode="normal" in2="BackgroundImageFix" result="effect1_dropShadow_205_45"/>
<feBlend mode="normal" in="SourceGraphic" in2="effect1_dropShadow_205_45" result="shape"/>
</filter>
<clipPath id="clip0_205_45">
<rect width="16" height="16" fill="white" transform="translate(7 7)"/>
</clipPath>
</defs>
</svg>
