<svg width="30" height="31" viewBox="0 0 30 31" fill="none" xmlns="http://www.w3.org/2000/svg">
<g clip-path="url(#clip0_129_35)">
<g filter="url(#filter0_d_129_35)">
<path d="M20.4889 10.4721L20.4889 13.4705ZM20.4889 10.4721L17.4905 10.4721ZM20.4889 10.4721L16.491 14.4699ZM18.49 22.4656C12.9703 22.4656 8.49536 17.9907 8.49536 12.471L8.49536 10.9718C8.49536 10.5742 8.65331 10.1929 8.93446 9.91174C9.21562 9.63058 9.59694 9.47263 9.99455 9.47263L10.9087 9.47263C11.2525 9.47263 11.5524 9.70651 11.6357 10.0403L12.3726 12.9874C12.4459 13.2806 12.3366 13.5884 12.0947 13.769L11.2332 14.4153C11.1099 14.5046 11.0187 14.6312 10.9731 14.7765C10.9274 14.9217 10.9299 15.0778 10.98 15.2215C11.3811 16.3123 12.0144 17.303 12.8362 18.1248C13.658 18.9466 14.6486 19.5799 15.7394 19.981C16.0333 20.0889 16.3578 19.9783 16.5457 19.7278L17.192 18.8662C17.2805 18.7481 17.4018 18.6588 17.5408 18.6093C17.6799 18.5599 17.8304 18.5526 17.9736 18.5884L20.9206 19.3253C21.2538 19.4086 21.4883 19.7084 21.4883 20.0522L21.4883 20.9664C21.4883 21.364 21.3304 21.7454 21.0492 22.0265C20.7681 22.3077 20.3868 22.4656 19.9891 22.4656L18.49 22.4656Z" fill="white"/>
<path d="M20.4889 10.4721L20.4889 13.4705M20.4889 10.4721L17.4905 10.4721M20.4889 10.4721L16.491 14.4699M18.49 22.4656C12.9703 22.4656 8.49536 17.9907 8.49536 12.471L8.49536 10.9718C8.49536 10.5742 8.65331 10.1929 8.93446 9.91174C9.21562 9.63058 9.59694 9.47263 9.99455 9.47263L10.9087 9.47263C11.2525 9.47263 11.5524 9.70651 11.6357 10.0403L12.3726 12.9874C12.4459 13.2806 12.3366 13.5884 12.0947 13.769L11.2332 14.4153C11.1099 14.5046 11.0187 14.6312 10.9731 14.7765C10.9274 14.9217 10.9299 15.0778 10.98 15.2215C11.3811 16.3123 12.0144 17.303 12.8362 18.1248C13.658 18.9466 14.6486 19.5799 15.7394 19.981C16.0333 20.0889 16.3578 19.9783 16.5457 19.7278L17.192 18.8662C17.2805 18.7481 17.4018 18.6588 17.5408 18.6093C17.6799 18.5599 17.8304 18.5526 17.9736 18.5884L20.9206 19.3253C21.2538 19.4086 21.4883 19.7084 21.4883 20.0522L21.4883 20.9664C21.4883 21.364 21.3304 21.7454 21.0492 22.0265C20.7681 22.3077 20.3868 22.4656 19.9891 22.4656L18.49 22.4656Z" stroke="white" stroke-width="0.99946" stroke-linecap="round" stroke-linejoin="round"/>
</g>
</g>
<rect x="0.49973" y="1.47704" width="29.0005" height="29.0005" rx="3.49811" stroke="white" stroke-width="0.99946"/>
<defs>
<filter id="filter0_d_129_35" x="5.99669" y="6.97398" width="17.9903" height="17.9903" filterUnits="userSpaceOnUse" color-interpolation-filters="sRGB">
<feFlood flood-opacity="0" result="BackgroundImageFix"/>
<feColorMatrix in="SourceAlpha" type="matrix" values="0 0 0 0 0 0 0 0 0 0 0 0 0 0 0 0 0 0 127 0" result="hardAlpha"/>
<feOffset/>
<feGaussianBlur stdDeviation="0.99946"/>
<feComposite in2="hardAlpha" operator="out"/>
<feColorMatrix type="matrix" values="0 0 0 0 0 0 0 0 0 0 0 0 0 0 0 0 0 0 0.1 0"/>
<feBlend mode="normal" in2="BackgroundImageFix" result="effect1_dropShadow_129_35"/>
<feBlend mode="normal" in="SourceGraphic" in2="effect1_dropShadow_129_35" result="shape"/>
</filter>
<clipPath id="clip0_129_35">
<rect width="15.9914" height="15.9914" fill="white" transform="translate(6.99609 7.97358)"/>
</clipPath>
</defs>
</svg>
