<svg width="442" height="177" viewBox="0 0 442 177" fill="none" xmlns="http://www.w3.org/2000/svg">
<path d="M21.926 47.859L91 1L50 55.5L64.5 123L1 170.5L40.5 109.5L21.926 47.859Z" fill="url(#paint0_linear_44_14)"/>
<path d="M70.062 176.523L93.898 64.164H106.766L105.219 77.594H105.781C107.703 75.016 109.859 72.602 112.25 70.352C114.641 68.102 117.312 66.273 120.266 64.867C123.266 63.461 126.547 62.758 130.109 62.758C134.094 62.758 137.703 63.742 140.938 65.711C144.219 67.633 146.82 70.633 148.742 74.711C150.711 78.742 151.695 83.945 151.695 90.32C151.695 95.664 151.133 100.914 150.008 106.07C148.93 111.18 147.336 115.984 145.227 120.484C143.117 124.984 140.539 128.969 137.492 132.438C134.492 135.859 131.07 138.555 127.227 140.523C123.383 142.445 119.164 143.406 114.57 143.406C111.195 143.406 108.289 142.844 105.852 141.719C103.461 140.547 101.445 139 99.805 137.078C98.164 135.156 96.781 133.047 95.656 130.75H95.023C94.789 133.516 94.461 136.398 94.039 139.398C93.617 142.398 93.102 145.258 92.492 147.977L86.445 176.523H70.062ZM112.391 129.977C115.062 129.977 117.547 129.25 119.844 127.797C122.141 126.297 124.227 124.258 126.102 121.68C127.977 119.102 129.57 116.125 130.883 112.75C132.195 109.375 133.203 105.812 133.906 102.062C134.609 98.266 134.961 94.445 134.961 90.602C134.961 85.82 134.023 82.234 132.148 79.844C130.32 77.406 127.555 76.188 123.852 76.188C121.602 76.188 119.445 76.773 117.383 77.945C115.32 79.07 113.398 80.617 111.617 82.586C109.836 84.555 108.219 86.852 106.766 89.477C105.312 92.055 104.07 94.82 103.039 97.773C102.008 100.727 101.211 103.727 100.648 106.773C100.133 109.82 99.875 112.773 99.875 115.633C99.875 119.945 100.93 123.414 103.039 126.039C105.195 128.664 108.312 129.977 112.391 129.977ZM161.891 142L178.414 64.164H191.281L189.594 78.859H190.367C192.383 75.859 194.562 73.141 196.906 70.703C199.297 68.266 201.945 66.32 204.852 64.867C207.758 63.414 210.992 62.688 214.555 62.688C215.82 62.688 217.133 62.781 218.492 62.969C219.898 63.109 221.117 63.32 222.148 63.602L218.562 79.07C217.531 78.789 216.406 78.555 215.188 78.367C213.969 78.18 212.68 78.086 211.32 78.086C208.227 78.086 205.32 78.812 202.602 80.266C199.883 81.719 197.422 83.734 195.219 86.312C193.016 88.891 191.117 91.914 189.523 95.383C187.93 98.805 186.688 102.531 185.797 106.562L178.344 142H161.891ZM253.297 143.266C247.391 143.266 242.234 142.047 237.828 139.609C233.422 137.172 230 133.727 227.562 129.273C225.172 124.773 223.977 119.453 223.977 113.312C223.977 108.109 224.516 103.047 225.594 98.125C226.719 93.203 228.359 88.609 230.516 84.344C232.672 80.078 235.367 76.352 238.602 73.164C241.836 69.93 245.586 67.422 249.852 65.641C254.117 63.812 258.898 62.898 264.195 62.898C270.242 62.898 275.445 64.117 279.805 66.555C284.164 68.992 287.516 72.484 289.859 77.031C292.203 81.578 293.375 87.016 293.375 93.344C293.375 98.406 292.836 103.352 291.758 108.18C290.727 113.008 289.156 117.555 287.047 121.82C284.938 126.039 282.266 129.766 279.031 133C275.844 136.188 272.094 138.695 267.781 140.523C263.516 142.352 258.688 143.266 253.297 143.266ZM254.492 129.766C257.117 129.766 259.555 129.18 261.805 128.008C264.102 126.789 266.164 125.078 267.992 122.875C269.82 120.625 271.367 117.977 272.633 114.93C273.945 111.836 274.953 108.414 275.656 104.664C276.359 100.914 276.711 96.906 276.711 92.641C276.711 89.781 276.289 87.133 275.445 84.695C274.602 82.211 273.195 80.219 271.227 78.719C269.305 77.172 266.727 76.398 263.492 76.398C260.586 76.398 257.914 77.102 255.477 78.508C253.086 79.867 250.953 81.766 249.078 84.203C247.25 86.641 245.703 89.453 244.438 92.641C243.172 95.781 242.211 99.156 241.555 102.766C240.898 106.328 240.57 109.938 240.57 113.594C240.57 118.797 241.742 122.805 244.086 125.617C246.477 128.383 249.945 129.766 254.492 129.766ZM327.477 143.406C323.305 143.406 319.742 142.586 316.789 140.945C313.883 139.305 311.656 136.938 310.109 133.844C308.609 130.703 307.859 126.953 307.859 122.594C307.859 120.672 308 118.562 308.281 116.266C308.609 113.922 309.008 111.508 309.477 109.023L319.039 64.164H335.492L325.438 111.414C325.109 113.242 324.828 114.906 324.594 116.406C324.406 117.859 324.312 119.195 324.312 120.414C324.312 123.555 325.039 125.945 326.492 127.586C327.992 129.18 330.312 129.977 333.453 129.977C336.828 129.977 340.109 128.711 343.297 126.18C346.531 123.602 349.461 119.875 352.086 115C354.711 110.125 356.75 104.242 358.203 97.352L365.234 64.164H381.547L365.094 142H352.156L353.844 127.234H353.141C351.266 130 349.086 132.625 346.602 135.109C344.117 137.547 341.305 139.539 338.164 141.086C335.023 142.633 331.461 143.406 327.477 143.406ZM412.484 143.406C406.812 143.406 402.195 142.141 398.633 139.609C395.117 137.031 393.359 132.531 393.359 126.109C393.359 124.844 393.43 123.461 393.57 121.961C393.758 120.414 394.016 118.82 394.344 117.18L402.922 76.68H391.672L393.219 68.805L406.508 63.391L415.367 46.938H425.703L422.047 64.164H441.875L439.203 76.68H419.445L410.797 117.25C410.562 118.234 410.352 119.289 410.164 120.414C410.023 121.492 409.953 122.477 409.953 123.367C409.953 125.477 410.539 127.117 411.711 128.289C412.883 129.461 414.664 130.047 417.055 130.047C418.883 130.047 420.641 129.859 422.328 129.484C424.016 129.109 425.867 128.57 427.883 127.867V140.312C426.148 141.109 423.898 141.812 421.133 142.422C418.367 143.078 415.484 143.406 412.484 143.406Z" fill="white"/>
<path d="M21.926 47.859L91 1L50 55.5L64.5 123L1 170.5L40.5 109.5L21.926 47.859Z" stroke="white" stroke-width="2"/>
<defs>
<linearGradient id="paint0_linear_44_14" x1="46" y1="1" x2="46" y2="170.5" gradientUnits="userSpaceOnUse">
<stop stop-color="white"/>
<stop offset="1" stop-color="white" stop-opacity="0"/>
</linearGradient>
</defs>
</svg>
