<svg width="30" height="30" viewBox="0 0 30 30" fill="none" xmlns="http://www.w3.org/2000/svg">
<g clip-path="url(#clip0_127_119)">
<g filter="url(#filter0_d_127_119)">
<path d="M18.5 13.5L20 15ZM20 15L21.5 16.5ZM20 15L21.5 13.5ZM20 15L18.5 16.5ZM11.5 12.5L14.6467 9.35338C14.7166 9.2835 14.8057 9.23594 14.9027 9.2167C14.9997 9.19747 15.1003 9.20743 15.1916 9.24532C15.2829 9.28321 15.361 9.34733 15.4159 9.42957C15.4708 9.51182 15.5 9.6085 15.5 9.70738V20.2934C15.4999 20.3922 15.4705 20.4888 15.4156 20.5709C15.3607 20.6531 15.2826 20.7171 15.1913 20.7549C15.1 20.7927 14.9995 20.8026 14.9026 20.7834C14.8056 20.7641 14.7166 20.7166 14.6467 20.6467L11.5 17.5H10.0067C9.42 17.5 8.87067 17.1627 8.71467 16.5974C8.57168 16.077 8.49948 15.5397 8.5 15C8.5 14.4467 8.57467 13.9114 8.71467 13.4034C8.87067 12.838 9.42 12.5 10.0067 12.5H11.5Z" fill="white"/>
<path d="M18.5 13.5L20 15M20 15L21.5 16.5M20 15L21.5 13.5M20 15L18.5 16.5M11.5 12.5L14.6467 9.35338C14.7166 9.2835 14.8057 9.23594 14.9027 9.2167C14.9997 9.19747 15.1003 9.20743 15.1916 9.24532C15.2829 9.28321 15.361 9.34733 15.4159 9.42957C15.4708 9.51182 15.5 9.6085 15.5 9.70738V20.2934C15.4999 20.3922 15.4705 20.4888 15.4156 20.5709C15.3607 20.6531 15.2826 20.7171 15.1913 20.7549C15.1 20.7927 14.9995 20.8026 14.9026 20.7834C14.8056 20.7641 14.7166 20.7166 14.6467 20.6467L11.5 17.5H10.0067C9.42 17.5 8.87067 17.1627 8.71467 16.5974C8.57168 16.077 8.49948 15.5397 8.5 15C8.5 14.4467 8.57467 13.9114 8.71467 13.4034C8.87067 12.838 9.42 12.5 10.0067 12.5H11.5Z" stroke="white" stroke-linecap="round" stroke-linejoin="round"/>
</g>
</g>
<rect x="0.5" y="0.5" width="29" height="29" rx="3.5" stroke="white"/>
<defs>
<filter id="filter0_d_127_119" x="6" y="6.70715" width="18" height="16.5858" filterUnits="userSpaceOnUse" color-interpolation-filters="sRGB">
<feFlood flood-opacity="0" result="BackgroundImageFix"/>
<feColorMatrix in="SourceAlpha" type="matrix" values="0 0 0 0 0 0 0 0 0 0 0 0 0 0 0 0 0 0 127 0" result="hardAlpha"/>
<feOffset/>
<feGaussianBlur stdDeviation="1"/>
<feComposite in2="hardAlpha" operator="out"/>
<feColorMatrix type="matrix" values="0 0 0 0 0 0 0 0 0 0 0 0 0 0 0 0 0 0 0.1 0"/>
<feBlend mode="normal" in2="BackgroundImageFix" result="effect1_dropShadow_127_119"/>
<feBlend mode="normal" in="SourceGraphic" in2="effect1_dropShadow_127_119" result="shape"/>
</filter>
<clipPath id="clip0_127_119">
<rect width="16" height="16" fill="white" transform="translate(7 7)"/>
</clipPath>
</defs>
</svg>
