<svg width="30" height="30" viewBox="0 0 30 30" fill="none" xmlns="http://www.w3.org/2000/svg">
<g clip-path="url(#clip0_129_32)">
<g filter="url(#filter0_d_129_32)">
<path d="M10.994 14.9918L9.17432 9.07901C13.5272 10.3448 17.632 12.3444 21.3118 14.9918C17.6322 17.6396 13.5277 19.6397 9.17498 20.9059L10.9933 14.9918L10.994 14.9918ZM10.994 14.9918L15.9913 14.9918Z" fill="white"/>
<path d="M10.994 14.9918L15.9913 14.9918M10.994 14.9918L9.17432 9.07901C13.5272 10.3448 17.632 12.3444 21.3118 14.9918C17.6322 17.6396 13.5277 19.6397 9.17498 20.9059L10.9933 14.9918L10.994 14.9918Z" stroke="white" stroke-width="0.749595" stroke-linecap="round" stroke-linejoin="round"/>
</g>
</g>
<rect x="0.49973" y="0.49973" width="29.0005" height="29.0005" rx="3.49811" stroke="white" stroke-width="0.99946"/>
<defs>
<filter id="filter0_d_129_32" x="6.80064" y="6.70528" width="16.8848" height="16.5744" filterUnits="userSpaceOnUse" color-interpolation-filters="sRGB">
<feFlood flood-opacity="0" result="BackgroundImageFix"/>
<feColorMatrix in="SourceAlpha" type="matrix" values="0 0 0 0 0 0 0 0 0 0 0 0 0 0 0 0 0 0 127 0" result="hardAlpha"/>
<feOffset/>
<feGaussianBlur stdDeviation="0.99946"/>
<feComposite in2="hardAlpha" operator="out"/>
<feColorMatrix type="matrix" values="0 0 0 0 0 0 0 0 0 0 0 0 0 0 0 0 0 0 0.1 0"/>
<feBlend mode="normal" in2="BackgroundImageFix" result="effect1_dropShadow_129_32"/>
<feBlend mode="normal" in="SourceGraphic" in2="effect1_dropShadow_129_32" result="shape"/>
</filter>
<clipPath id="clip0_129_32">
<rect width="15.9914" height="15.9914" fill="white" transform="translate(6.99609 6.99625)"/>
</clipPath>
</defs>
</svg>
