<svg width="30" height="30" viewBox="0 0 30 30" fill="none" xmlns="http://www.w3.org/2000/svg">
<g filter="url(#filter0_d_205_51)">
<path d="M19.5 11C19.5 10.8674 19.4473 10.7402 19.3536 10.6464C19.2598 10.5527 19.1326 10.5 19 10.5C18.8674 10.5 18.7402 10.5527 18.6464 10.6464C18.5527 10.7402 18.5 10.8674 18.5 11V14.248L12.233 10.612C11.693 10.3 11 10.678 11 11.308V18.692C11 19.322 11.692 19.702 12.233 19.389L18.5 15.753V19C18.5 19.1326 18.5527 19.2598 18.6464 19.3536C18.7402 19.4473 18.8674 19.5 19 19.5C19.1326 19.5 19.2598 19.4473 19.3536 19.3536C19.4473 19.2598 19.5 19.1326 19.5 19V11Z" fill="white"/>
</g>
<rect x="0.5" y="0.5" width="29" height="29" rx="14.5" stroke="white"/>
<defs>
<filter id="filter0_d_205_51" x="9" y="8.5" width="12.5" height="13.0008" filterUnits="userSpaceOnUse" color-interpolation-filters="sRGB">
<feFlood flood-opacity="0" result="BackgroundImageFix"/>
<feColorMatrix in="SourceAlpha" type="matrix" values="0 0 0 0 0 0 0 0 0 0 0 0 0 0 0 0 0 0 127 0" result="hardAlpha"/>
<feOffset/>
<feGaussianBlur stdDeviation="1"/>
<feComposite in2="hardAlpha" operator="out"/>
<feColorMatrix type="matrix" values="0 0 0 0 0 0 0 0 0 0 0 0 0 0 0 0 0 0 0.1 0"/>
<feBlend mode="normal" in2="BackgroundImageFix" result="effect1_dropShadow_205_51"/>
<feBlend mode="normal" in="SourceGraphic" in2="effect1_dropShadow_205_51" result="shape"/>
</filter>
</defs>
</svg>
